<svg xmlns="http://www.w3.org/2000/svg" version="1.0" width="348.000000pt" height="348.000000pt" viewBox="0 0 348.000000 348.000000" preserveAspectRatio="xMidYMid meet">

<g transform="translate(0.000000,348.000000) scale(0.100000,-0.100000)" fill="#ff3366" stroke="none">
<path d="M338 3453 c-94 -76 -169 -147 -249 -238 l-89 -100 0 -1351 0 -1350 88 -100 c90 -100 175 -180 286 -266 l61 -48 1270 0 1271 0 84 67 c109 85 267 244 353 354 l67 87 0 1257 0 1257 -52 67 c-92 118 -171 202 -278 298 l-105 93 -1336 0 -1336 0 -35 -27z m972 -978 c23 -12 86 -109 279 -433 527 -885 521 -874 521 -921 0 -36 -22 -82 -142 -299 -172 -312 -156 -286 -189 -306 -36 -21 -87 -20 -125 3 -23 14 -154 226 -560 906 -291 488 -533 900 -538 916 -12 40 0 77 39 116 l33 33 326 0 c273 0 332 -3 356 -15z m1514 -19 c31 -28 36 -40 36 -77 0 -37 -17 -73 -116 -246 -64 -112 -125 -210 -137 -217 -22 -14 -51 -19 -94 -17 -41 2 -81 54 -193 251 -102 179 -111 198 -106 235 3 29 14 49 40 72 l36 33 249 0 250 0 35 -34z"/>
</g>
</svg>